<svg width="24" height="24" viewBox="0 0 20 20" fill="none" xmlns="http://www.w3.org/2000/svg">
<g clip-path="url(#clip0_76_54)">
<path d="M15.4826 9.99972V15.4824M11.0963 15.4824V13.2892M0.131592 13.2892L3.23475 10.186M5.61422 4.51709C4.7418 4.51709 3.90511 4.86366 3.28821 5.48055C2.67132 6.09745 2.32475 6.93414 2.32475 7.80656C2.32475 8.67899 2.67132 9.51568 3.28821 10.1326C3.90511 10.7495 4.7418 11.096 5.61422 11.096C6.48665 11.096 7.32334 10.7495 7.94023 10.1326C8.55713 9.51568 8.9037 8.67899 8.9037 7.80656C8.9037 6.93414 8.55713 6.09745 7.94023 5.48055C7.32334 4.86366 6.48665 4.51709 5.61422 4.51709Z" stroke="#FFF8F8" stroke-width="2" stroke-linecap="round" stroke-linejoin="round"/>
<path d="M5.61418 0.131348H18.7721C19.0628 0.131348 19.3417 0.246852 19.5473 0.452451C19.7529 0.65805 19.8684 0.936902 19.8684 1.22766V18.7719C19.8684 19.0626 19.7529 19.3415 19.5473 19.5471C19.3417 19.7527 19.0628 19.8682 18.7721 19.8682H5.61418C5.47016 19.8683 5.32754 19.84 5.19447 19.7849C5.0614 19.7298 4.94048 19.6491 4.83862 19.5473C4.73677 19.4455 4.65596 19.3246 4.60084 19.1915C4.54571 19.0585 4.51733 18.9159 4.51733 18.7719V15.4824" stroke="#FFF8F8" stroke-width="2" stroke-linecap="round" stroke-linejoin="round"/>
</g>
<defs>
<clipPath id="clip0_76_54">
<rect width="20" height="20" fill="white"/>
</clipPath>
</defs>
</svg>
