<svg width="24" height="24" viewBox="0 0 50 50" fill="none" xmlns="http://www.w3.org/2000/svg">
<path d="M35.417 25V35.417M27.083 35.417V31.25M6.25 31.25L12.146 25.354M16.667 14.583C15.0094 14.583 13.4197 15.2415 12.2476 16.4136C11.0755 17.5857 10.417 19.1754 10.417 20.833C10.417 22.4906 11.0755 24.0803 12.2476 25.2524C13.4197 26.4245 15.0094 27.083 16.667 27.083C18.3246 27.083 19.9143 26.4245 21.0864 25.2524C22.2585 24.0803 22.917 22.4906 22.917 20.833C22.917 19.1754 22.2585 17.5857 21.0864 16.4136C19.9143 15.2415 18.3246 14.583 16.667 14.583Z" stroke="#EAB308" stroke-width="2" stroke-linecap="round" stroke-linejoin="round"/>
<path d="M16.667 6.25H41.667C42.2195 6.25 42.7493 6.46946 43.1399 6.8601C43.5305 7.25073 43.75 7.78055 43.75 8.333V41.667C43.75 42.2194 43.5305 42.7493 43.1399 43.1399C42.7493 43.5305 42.2195 43.75 41.667 43.75H16.667C16.3934 43.7501 16.1224 43.6963 15.8696 43.5917C15.6167 43.4871 15.387 43.3337 15.1935 43.1403C14.9999 42.9468 14.8464 42.7171 14.7417 42.4644C14.6369 42.2116 14.583 41.9406 14.583 41.667V35.417" stroke="#EAB308" stroke-width="2" stroke-linecap="round" stroke-linejoin="round"/>
</svg>
