<svg width="24" height="24" viewBox="0 0 24 24" fill="none" xmlns="http://www.w3.org/2000/svg">
<path d="M4.847 13C4.38633 13 4.002 12.8457 3.694 12.537C3.386 12.2283 3.23167 11.844 3.231 11.384V1.615C3.231 1.155 3.38533 0.770669 3.694 0.462002C4.00267 0.153335 4.38667 -0.000664511 4.846 2.15517e-06H19.616C20.076 2.15517e-06 20.46 0.154002 20.768 0.462002C21.076 0.770002 21.2303 1.15434 21.231 1.615V11.385C21.231 11.845 21.0767 12.229 20.768 12.537C20.4593 12.845 20.075 12.9993 19.615 13H4.847ZM2 15V14H22.462V15H2Z" fill="#FFF8F8"/>
</svg>
