<svg width="252" height="26" viewBox="0 0 252 26" fill="none" xmlns="http://www.w3.org/2000/svg">
<path d="M7.68 20.24C6.576 20.24 5.576 20.112 4.68 19.856C3.8 19.584 3.016 19.2 2.328 18.704C1.64 18.192 1.024 17.592 0.48 16.904L2.952 14.096C3.752 15.168 4.552 15.888 5.352 16.256C6.168 16.624 7.008 16.808 7.872 16.808C8.304 16.808 8.696 16.752 9.048 16.64C9.4 16.528 9.672 16.368 9.864 16.16C10.056 15.936 10.152 15.664 10.152 15.344C10.152 15.104 10.088 14.888 9.96 14.696C9.848 14.504 9.688 14.336 9.48 14.192C9.272 14.048 9.024 13.92 8.736 13.808C8.448 13.68 8.144 13.576 7.824 13.496C7.504 13.4 7.176 13.32 6.84 13.256C5.912 13.048 5.104 12.792 4.416 12.488C3.728 12.184 3.152 11.816 2.688 11.384C2.24 10.936 1.904 10.432 1.68 9.872C1.456 9.296 1.344 8.656 1.344 7.952C1.344 7.2 1.512 6.512 1.848 5.888C2.2 5.248 2.664 4.704 3.24 4.256C3.832 3.792 4.512 3.44 5.28 3.2C6.048 2.944 6.848 2.816 7.68 2.816C8.784 2.816 9.728 2.936 10.512 3.176C11.312 3.4 11.992 3.728 12.552 4.16C13.128 4.592 13.616 5.112 14.016 5.72L11.496 8.144C11.16 7.728 10.792 7.384 10.392 7.112C10.008 6.84 9.592 6.632 9.144 6.488C8.712 6.344 8.264 6.272 7.8 6.272C7.32 6.272 6.904 6.336 6.552 6.464C6.216 6.576 5.952 6.744 5.76 6.968C5.568 7.176 5.472 7.432 5.472 7.736C5.472 8.008 5.552 8.24 5.712 8.432C5.872 8.624 6.088 8.8 6.36 8.96C6.632 9.104 6.944 9.232 7.296 9.344C7.648 9.44 8.016 9.52 8.4 9.584C9.28 9.76 10.072 9.992 10.776 10.28C11.496 10.568 12.112 10.92 12.624 11.336C13.152 11.752 13.552 12.248 13.824 12.824C14.112 13.384 14.256 14.04 14.256 14.792C14.256 15.96 13.968 16.952 13.392 17.768C12.832 18.568 12.056 19.184 11.064 19.616C10.088 20.032 8.96 20.24 7.68 20.24ZM16.9149 20V2.24H20.6829V9.848L19.9149 10.136C20.0909 9.56 20.4029 9.04 20.8509 8.576C21.3149 8.096 21.8669 7.712 22.5069 7.424C23.1469 7.136 23.8189 6.992 24.5229 6.992C25.4829 6.992 26.2909 7.192 26.9469 7.592C27.6029 7.976 28.0989 8.56 28.4349 9.344C28.7709 10.112 28.9389 11.056 28.9389 12.176V20H25.0749V12.488C25.0749 11.976 25.0029 11.552 24.8589 11.216C24.7149 10.88 24.4909 10.632 24.1869 10.472C23.8989 10.296 23.5389 10.216 23.1069 10.232C22.7709 10.232 22.4589 10.288 22.1709 10.4C21.8829 10.496 21.6349 10.648 21.4269 10.856C21.2189 11.048 21.0509 11.272 20.9229 11.528C20.8109 11.784 20.7549 12.064 20.7549 12.368V20H18.8589C18.4109 20 18.0269 20 17.7069 20C17.3869 20 17.1229 20 16.9149 20ZM32.1493 20V7.256H35.7973L35.9653 11.408L35.2453 10.616C35.4373 9.928 35.7493 9.312 36.1813 8.768C36.6293 8.224 37.1493 7.792 37.7413 7.472C38.3333 7.152 38.9653 6.992 39.6373 6.992C39.9253 6.992 40.1893 7.016 40.4293 7.064C40.6853 7.112 40.9173 7.168 41.1253 7.232L40.0693 11.48C39.8933 11.368 39.6533 11.28 39.3493 11.216C39.0613 11.136 38.7573 11.096 38.4373 11.096C38.0853 11.096 37.7573 11.16 37.4533 11.288C37.1493 11.4 36.8933 11.568 36.6853 11.792C36.4773 12.016 36.3093 12.28 36.1813 12.584C36.0693 12.888 36.0133 13.232 36.0133 13.616V20H32.1493ZM43.2872 20V7.256H47.1272V20H43.2872ZM45.2072 4.736C44.4872 4.736 43.9192 4.568 43.5032 4.232C43.1032 3.88 42.9032 3.384 42.9032 2.744C42.9032 2.168 43.1112 1.696 43.5272 1.328C43.9432 0.959999 44.5032 0.775999 45.2072 0.775999C45.9272 0.775999 46.4872 0.951999 46.8872 1.304C47.2872 1.64 47.4872 2.12 47.4872 2.744C47.4872 3.336 47.2792 3.816 46.8632 4.184C46.4632 4.552 45.9112 4.736 45.2072 4.736ZM50.7353 20V7.256H54.3833L54.5513 11.408L53.8313 10.616C54.0233 9.928 54.3353 9.312 54.7673 8.768C55.2153 8.224 55.7353 7.792 56.3273 7.472C56.9193 7.152 57.5513 6.992 58.2233 6.992C58.5113 6.992 58.7753 7.016 59.0153 7.064C59.2713 7.112 59.5033 7.168 59.7113 7.232L58.6553 11.48C58.4793 11.368 58.2393 11.28 57.9353 11.216C57.6473 11.136 57.3433 11.096 57.0233 11.096C56.6713 11.096 56.3433 11.16 56.0393 11.288C55.7353 11.4 55.4793 11.568 55.2713 11.792C55.0633 12.016 54.8953 12.28 54.7673 12.584C54.6553 12.888 54.5993 13.232 54.5993 13.616V20H50.7353ZM65.8221 20.216C64.7501 20.216 63.7901 19.936 62.9421 19.376C62.1101 18.8 61.4461 18.016 60.9501 17.024C60.4541 16.016 60.2061 14.88 60.2061 13.616C60.2061 12.32 60.4541 11.176 60.9501 10.184C61.4461 9.192 62.1261 8.416 62.9901 7.856C63.8541 7.28 64.8381 6.992 65.9421 6.992C66.5501 6.992 67.1021 7.08 67.5981 7.256C68.1101 7.432 68.5581 7.68 68.9421 8C69.3261 8.304 69.6541 8.664 69.9261 9.08C70.1981 9.48 70.3981 9.912 70.5261 10.376L69.7341 10.28V7.256H73.5501V20H69.6621V16.928L70.5261 16.904C70.3981 17.352 70.1901 17.776 69.9021 18.176C69.6141 18.576 69.2621 18.928 68.8461 19.232C68.4301 19.536 67.9661 19.776 67.4541 19.952C66.9421 20.128 66.3981 20.216 65.8221 20.216ZM66.8781 16.976C67.4701 16.976 67.9821 16.84 68.4141 16.568C68.8461 16.296 69.1821 15.912 69.4221 15.416C69.6621 14.904 69.7821 14.304 69.7821 13.616C69.7821 12.928 69.6621 12.336 69.4221 11.84C69.1821 11.328 68.8461 10.936 68.4141 10.664C67.9821 10.376 67.4701 10.232 66.8781 10.232C66.3021 10.232 65.7981 10.376 65.3661 10.664C64.9501 10.936 64.6221 11.328 64.3821 11.84C64.1421 12.336 64.0221 12.928 64.0221 13.616C64.0221 14.304 64.1421 14.904 64.3821 15.416C64.6221 15.912 64.9501 16.296 65.3661 16.568C65.7981 16.84 66.3021 16.976 66.8781 16.976ZM81.6424 20.216C80.5704 20.216 79.6104 19.936 78.7624 19.376C77.9304 18.8 77.2664 18.016 76.7704 17.024C76.2744 16.016 76.0264 14.88 76.0264 13.616C76.0264 12.32 76.2744 11.176 76.7704 10.184C77.2664 9.192 77.9464 8.416 78.8104 7.856C79.6744 7.28 80.6584 6.992 81.7624 6.992C82.3704 6.992 82.9224 7.08 83.4184 7.256C83.9304 7.432 84.3784 7.68 84.7624 8C85.1464 8.304 85.4744 8.664 85.7464 9.08C86.0184 9.48 86.2184 9.912 86.3464 10.376L85.5544 10.28V7.256H89.3704V20H85.4824V16.928L86.3464 16.904C86.2184 17.352 86.0104 17.776 85.7224 18.176C85.4344 18.576 85.0824 18.928 84.6664 19.232C84.2504 19.536 83.7864 19.776 83.2744 19.952C82.7624 20.128 82.2184 20.216 81.6424 20.216ZM82.6984 16.976C83.2904 16.976 83.8024 16.84 84.2344 16.568C84.6664 16.296 85.0024 15.912 85.2424 15.416C85.4824 14.904 85.6024 14.304 85.6024 13.616C85.6024 12.928 85.4824 12.336 85.2424 11.84C85.0024 11.328 84.6664 10.936 84.2344 10.664C83.8024 10.376 83.2904 10.232 82.6984 10.232C82.1224 10.232 81.6184 10.376 81.1864 10.664C80.7704 10.936 80.4424 11.328 80.2024 11.84C79.9624 12.336 79.8424 12.928 79.8424 13.616C79.8424 14.304 79.9624 14.904 80.2024 15.416C80.4424 15.912 80.7704 16.296 81.1864 16.568C81.6184 16.84 82.1224 16.976 82.6984 16.976ZM92.7347 20V7.256H96.3827L96.5027 9.56L95.9987 9.584C96.1907 9.168 96.4307 8.8 96.7187 8.48C97.0227 8.16 97.3587 7.896 97.7267 7.688C98.1107 7.464 98.5027 7.296 98.9027 7.184C99.3187 7.072 99.7347 7.016 100.151 7.016C100.775 7.016 101.343 7.112 101.855 7.304C102.367 7.496 102.815 7.808 103.199 8.24C103.583 8.656 103.887 9.224 104.111 9.944L103.511 9.896L103.703 9.512C103.911 9.128 104.175 8.784 104.495 8.48C104.831 8.16 105.199 7.896 105.599 7.688C105.999 7.464 106.415 7.296 106.847 7.184C107.279 7.072 107.695 7.016 108.095 7.016C109.103 7.016 109.943 7.216 110.615 7.616C111.287 8 111.791 8.584 112.127 9.368C112.479 10.152 112.655 11.104 112.655 12.224V20H108.791V12.536C108.791 12.024 108.719 11.6 108.575 11.264C108.431 10.928 108.215 10.68 107.927 10.52C107.655 10.344 107.311 10.256 106.895 10.256C106.559 10.256 106.247 10.312 105.959 10.424C105.687 10.536 105.447 10.688 105.239 10.88C105.047 11.072 104.895 11.296 104.783 11.552C104.671 11.808 104.615 12.096 104.615 12.416V20H100.751V12.512C100.751 12.032 100.679 11.624 100.535 11.288C100.391 10.952 100.175 10.696 99.8867 10.52C99.5987 10.344 99.2627 10.256 98.8787 10.256C98.5427 10.256 98.2307 10.312 97.9427 10.424C97.6707 10.536 97.4307 10.688 97.2227 10.88C97.0307 11.072 96.8787 11.296 96.7667 11.552C96.6547 11.808 96.5987 12.088 96.5987 12.392V20H92.7347Z" fill="white"/>
<path d="M116.253 20V3.2H119.901L128.709 15.2L127.917 15.08C127.837 14.552 127.773 14.048 127.725 13.568C127.677 13.088 127.629 12.616 127.581 12.152C127.549 11.688 127.517 11.216 127.485 10.736C127.469 10.256 127.453 9.736 127.437 9.176C127.437 8.616 127.437 8.008 127.437 7.352V3.2H131.397V20H127.701L118.509 7.616L119.733 7.784C119.813 8.552 119.877 9.208 119.925 9.752C119.989 10.28 120.037 10.752 120.069 11.168C120.117 11.584 120.149 11.96 120.165 12.296C120.181 12.632 120.189 12.968 120.189 13.304C120.205 13.624 120.213 13.984 120.213 14.384V20H116.253ZM139.908 20.216C138.836 20.216 137.876 19.936 137.028 19.376C136.196 18.8 135.532 18.016 135.036 17.024C134.54 16.016 134.292 14.88 134.292 13.616C134.292 12.32 134.54 11.176 135.036 10.184C135.532 9.192 136.212 8.416 137.076 7.856C137.94 7.28 138.924 6.992 140.028 6.992C140.636 6.992 141.188 7.08 141.684 7.256C142.196 7.432 142.644 7.68 143.028 8C143.412 8.304 143.74 8.664 144.012 9.08C144.284 9.48 144.484 9.912 144.612 10.376L143.82 10.28V7.256H147.636V20H143.748V16.928L144.612 16.904C144.484 17.352 144.276 17.776 143.988 18.176C143.7 18.576 143.348 18.928 142.932 19.232C142.516 19.536 142.052 19.776 141.54 19.952C141.028 20.128 140.484 20.216 139.908 20.216ZM140.964 16.976C141.556 16.976 142.068 16.84 142.5 16.568C142.932 16.296 143.268 15.912 143.508 15.416C143.748 14.904 143.868 14.304 143.868 13.616C143.868 12.928 143.748 12.336 143.508 11.84C143.268 11.328 142.932 10.936 142.5 10.664C142.068 10.376 141.556 10.232 140.964 10.232C140.388 10.232 139.884 10.376 139.452 10.664C139.036 10.936 138.708 11.328 138.468 11.84C138.228 12.336 138.108 12.928 138.108 13.616C138.108 14.304 138.228 14.904 138.468 15.416C138.708 15.912 139.036 16.296 139.452 16.568C139.884 16.84 140.388 16.976 140.964 16.976ZM156.856 25.52C155.816 25.52 154.776 25.368 153.736 25.064C152.712 24.76 151.88 24.368 151.24 23.888L152.584 21.2C152.92 21.424 153.288 21.616 153.688 21.776C154.104 21.952 154.536 22.088 154.984 22.184C155.432 22.28 155.888 22.328 156.352 22.328C157.168 22.328 157.832 22.208 158.344 21.968C158.856 21.728 159.24 21.36 159.496 20.864C159.752 20.384 159.88 19.776 159.88 19.04V16.904L160.624 17.024C160.512 17.552 160.232 18.032 159.784 18.464C159.352 18.896 158.816 19.248 158.176 19.52C157.536 19.776 156.856 19.904 156.136 19.904C154.984 19.904 153.952 19.64 153.04 19.112C152.144 18.568 151.432 17.824 150.904 16.88C150.392 15.92 150.136 14.816 150.136 13.568C150.136 12.288 150.392 11.16 150.904 10.184C151.416 9.192 152.12 8.416 153.016 7.856C153.912 7.28 154.92 6.992 156.04 6.992C156.52 6.992 156.976 7.048 157.408 7.16C157.856 7.272 158.264 7.424 158.632 7.616C159.016 7.792 159.352 8.008 159.64 8.264C159.944 8.504 160.184 8.768 160.36 9.056C160.552 9.344 160.68 9.64 160.744 9.944L159.952 10.136L160.096 7.256H163.744V18.968C163.744 20.008 163.584 20.928 163.264 21.728C162.96 22.544 162.504 23.232 161.896 23.792C161.304 24.368 160.584 24.8 159.736 25.088C158.888 25.376 157.928 25.52 156.856 25.52ZM156.952 16.928C157.576 16.928 158.112 16.792 158.56 16.52C159.024 16.232 159.376 15.84 159.616 15.344C159.872 14.848 160 14.264 160 13.592C160 12.92 159.872 12.336 159.616 11.84C159.376 11.328 159.024 10.936 158.56 10.664C158.112 10.376 157.576 10.232 156.952 10.232C156.344 10.232 155.816 10.376 155.368 10.664C154.92 10.936 154.568 11.328 154.312 11.84C154.072 12.336 153.952 12.92 153.952 13.592C153.952 14.264 154.072 14.848 154.312 15.344C154.568 15.84 154.92 16.232 155.368 16.52C155.816 16.792 156.344 16.928 156.952 16.928ZM171.783 20.216C170.711 20.216 169.751 19.936 168.903 19.376C168.071 18.8 167.407 18.016 166.911 17.024C166.415 16.016 166.167 14.88 166.167 13.616C166.167 12.32 166.415 11.176 166.911 10.184C167.407 9.192 168.087 8.416 168.951 7.856C169.815 7.28 170.799 6.992 171.903 6.992C172.511 6.992 173.063 7.08 173.559 7.256C174.071 7.432 174.519 7.68 174.903 8C175.287 8.304 175.615 8.664 175.887 9.08C176.159 9.48 176.359 9.912 176.487 10.376L175.695 10.28V7.256H179.511V20H175.623V16.928L176.487 16.904C176.359 17.352 176.151 17.776 175.863 18.176C175.575 18.576 175.223 18.928 174.807 19.232C174.391 19.536 173.927 19.776 173.415 19.952C172.903 20.128 172.359 20.216 171.783 20.216ZM172.839 16.976C173.431 16.976 173.943 16.84 174.375 16.568C174.807 16.296 175.143 15.912 175.383 15.416C175.623 14.904 175.743 14.304 175.743 13.616C175.743 12.928 175.623 12.336 175.383 11.84C175.143 11.328 174.807 10.936 174.375 10.664C173.943 10.376 173.431 10.232 172.839 10.232C172.263 10.232 171.759 10.376 171.327 10.664C170.911 10.936 170.583 11.328 170.343 11.84C170.103 12.336 169.983 12.928 169.983 13.616C169.983 14.304 170.103 14.904 170.343 15.416C170.583 15.912 170.911 16.296 171.327 16.568C171.759 16.84 172.263 16.976 172.839 16.976ZM182.899 20V7.256H186.547L186.715 11.408L185.995 10.616C186.187 9.928 186.499 9.312 186.931 8.768C187.379 8.224 187.899 7.792 188.491 7.472C189.083 7.152 189.715 6.992 190.387 6.992C190.675 6.992 190.939 7.016 191.179 7.064C191.435 7.112 191.667 7.168 191.875 7.232L190.819 11.48C190.643 11.368 190.403 11.28 190.099 11.216C189.811 11.136 189.507 11.096 189.187 11.096C188.835 11.096 188.507 11.16 188.203 11.288C187.899 11.4 187.643 11.568 187.435 11.792C187.227 12.016 187.059 12.28 186.931 12.584C186.819 12.888 186.763 13.232 186.763 13.616V20H182.899ZM197.986 20.216C196.914 20.216 195.954 19.936 195.106 19.376C194.274 18.8 193.61 18.016 193.114 17.024C192.618 16.016 192.37 14.88 192.37 13.616C192.37 12.32 192.618 11.176 193.114 10.184C193.61 9.192 194.29 8.416 195.154 7.856C196.018 7.28 197.002 6.992 198.106 6.992C198.714 6.992 199.266 7.08 199.762 7.256C200.274 7.432 200.722 7.68 201.106 8C201.49 8.304 201.818 8.664 202.09 9.08C202.362 9.48 202.562 9.912 202.69 10.376L201.898 10.28V7.256H205.714V20H201.826V16.928L202.69 16.904C202.562 17.352 202.354 17.776 202.066 18.176C201.778 18.576 201.426 18.928 201.01 19.232C200.594 19.536 200.13 19.776 199.618 19.952C199.106 20.128 198.562 20.216 197.986 20.216ZM199.042 16.976C199.634 16.976 200.146 16.84 200.578 16.568C201.01 16.296 201.346 15.912 201.586 15.416C201.826 14.904 201.946 14.304 201.946 13.616C201.946 12.928 201.826 12.336 201.586 11.84C201.346 11.328 201.01 10.936 200.578 10.664C200.146 10.376 199.634 10.232 199.042 10.232C198.466 10.232 197.962 10.376 197.53 10.664C197.114 10.936 196.786 11.328 196.546 11.84C196.306 12.336 196.186 12.928 196.186 13.616C196.186 14.304 196.306 14.904 196.546 15.416C196.786 15.912 197.114 16.296 197.53 16.568C197.962 16.84 198.466 16.976 199.042 16.976ZM207.95 25.04L206.486 22.064C207.222 22.064 207.798 21.968 208.214 21.776C208.63 21.584 208.926 21.264 209.102 20.816C209.278 20.384 209.366 19.784 209.366 19.016V7.256H213.206V19.928C213.206 21.096 213.006 22.056 212.606 22.808C212.206 23.56 211.614 24.12 210.83 24.488C210.046 24.856 209.086 25.04 207.95 25.04ZM211.358 4.736C210.638 4.736 210.07 4.568 209.654 4.232C209.254 3.88 209.054 3.384 209.054 2.744C209.054 2.168 209.262 1.696 209.678 1.328C210.094 0.959999 210.654 0.775999 211.358 0.775999C212.078 0.775999 212.638 0.951999 213.038 1.304C213.438 1.64 213.638 2.12 213.638 2.744C213.638 3.336 213.43 3.816 213.014 4.184C212.614 4.552 212.062 4.736 211.358 4.736ZM221.4 20.216C220.328 20.216 219.368 19.936 218.52 19.376C217.688 18.8 217.024 18.016 216.528 17.024C216.032 16.016 215.784 14.88 215.784 13.616C215.784 12.32 216.032 11.176 216.528 10.184C217.024 9.192 217.704 8.416 218.568 7.856C219.432 7.28 220.416 6.992 221.52 6.992C222.128 6.992 222.68 7.08 223.176 7.256C223.688 7.432 224.136 7.68 224.52 8C224.904 8.304 225.232 8.664 225.504 9.08C225.776 9.48 225.976 9.912 226.104 10.376L225.312 10.28V7.256H229.128V20H225.24V16.928L226.104 16.904C225.976 17.352 225.768 17.776 225.48 18.176C225.192 18.576 224.84 18.928 224.424 19.232C224.008 19.536 223.544 19.776 223.032 19.952C222.52 20.128 221.976 20.216 221.4 20.216ZM222.456 16.976C223.048 16.976 223.56 16.84 223.992 16.568C224.424 16.296 224.76 15.912 225 15.416C225.24 14.904 225.36 14.304 225.36 13.616C225.36 12.928 225.24 12.336 225 11.84C224.76 11.328 224.424 10.936 223.992 10.664C223.56 10.376 223.048 10.232 222.456 10.232C221.88 10.232 221.376 10.376 220.944 10.664C220.528 10.936 220.2 11.328 219.96 11.84C219.72 12.336 219.6 12.928 219.6 13.616C219.6 14.304 219.72 14.904 219.96 15.416C220.2 15.912 220.528 16.296 220.944 16.568C221.376 16.84 221.88 16.976 222.456 16.976ZM232.517 20V7.256H236.165L236.285 9.848L235.517 10.136C235.693 9.56 236.005 9.04 236.453 8.576C236.917 8.096 237.469 7.712 238.109 7.424C238.749 7.136 239.421 6.992 240.125 6.992C241.085 6.992 241.893 7.192 242.549 7.592C243.205 7.976 243.701 8.56 244.036 9.344C244.373 10.112 244.541 11.056 244.541 12.176V20H240.677V12.488C240.677 11.976 240.605 11.552 240.461 11.216C240.317 10.88 240.093 10.632 239.789 10.472C239.501 10.296 239.141 10.216 238.709 10.232C238.373 10.232 238.061 10.288 237.773 10.4C237.485 10.496 237.237 10.648 237.029 10.856C236.821 11.048 236.653 11.272 236.525 11.528C236.413 11.784 236.357 12.064 236.357 12.368V20H234.461C234.013 20 233.629 20 233.309 20C232.989 20 232.725 20 232.517 20ZM249.119 20.264C248.463 20.264 247.951 20.08 247.583 19.712C247.231 19.344 247.055 18.816 247.055 18.128C247.055 17.488 247.247 16.968 247.631 16.568C248.015 16.168 248.511 15.968 249.119 15.968C249.775 15.968 250.287 16.16 250.655 16.544C251.023 16.912 251.207 17.44 251.207 18.128C251.207 18.752 251.015 19.264 250.631 19.664C250.247 20.064 249.743 20.264 249.119 20.264Z" fill="#EAB308"/>
</svg>
