<svg width="33" height="19" viewBox="0 0 33 19" fill="none" xmlns="http://www.w3.org/2000/svg">
<path d="M7.68 18.24C6.576 18.24 5.576 18.112 4.68 17.856C3.8 17.584 3.016 17.2 2.328 16.704C1.64 16.192 1.024 15.592 0.48 14.904L2.952 12.096C3.752 13.168 4.552 13.888 5.352 14.256C6.168 14.624 7.008 14.808 7.872 14.808C8.304 14.808 8.696 14.752 9.048 14.64C9.4 14.528 9.672 14.368 9.864 14.16C10.056 13.936 10.152 13.664 10.152 13.344C10.152 13.104 10.088 12.888 9.96 12.696C9.848 12.504 9.688 12.336 9.48 12.192C9.272 12.048 9.024 11.92 8.736 11.808C8.448 11.68 8.144 11.576 7.824 11.496C7.504 11.4 7.176 11.32 6.84 11.256C5.912 11.048 5.104 10.792 4.416 10.488C3.728 10.184 3.152 9.816 2.688 9.384C2.24 8.936 1.904 8.432 1.68 7.872C1.456 7.296 1.344 6.656 1.344 5.952C1.344 5.2 1.512 4.512 1.848 3.888C2.2 3.248 2.664 2.704 3.24 2.256C3.832 1.792 4.512 1.44 5.28 1.2C6.048 0.943999 6.848 0.816 7.68 0.816C8.784 0.816 9.728 0.935999 10.512 1.176C11.312 1.4 11.992 1.728 12.552 2.16C13.128 2.592 13.616 3.112 14.016 3.72L11.496 6.144C11.16 5.728 10.792 5.384 10.392 5.112C10.008 4.84 9.592 4.632 9.144 4.488C8.712 4.344 8.264 4.272 7.8 4.272C7.32 4.272 6.904 4.336 6.552 4.464C6.216 4.576 5.952 4.744 5.76 4.968C5.568 5.176 5.472 5.432 5.472 5.736C5.472 6.008 5.552 6.24 5.712 6.432C5.872 6.624 6.088 6.8 6.36 6.96C6.632 7.104 6.944 7.232 7.296 7.344C7.648 7.44 8.016 7.52 8.4 7.584C9.28 7.76 10.072 7.992 10.776 8.28C11.496 8.568 12.112 8.92 12.624 9.336C13.152 9.752 13.552 10.248 13.824 10.824C14.112 11.384 14.256 12.04 14.256 12.792C14.256 13.96 13.968 14.952 13.392 15.768C12.832 16.568 12.056 17.184 11.064 17.616C10.088 18.032 8.96 18.24 7.68 18.24ZM17.3229 18V1.2H20.9709L29.7789 13.2L28.9869 13.08C28.9069 12.552 28.8429 12.048 28.7949 11.568C28.7469 11.088 28.6989 10.616 28.6509 10.152C28.6189 9.688 28.5869 9.216 28.5549 8.736C28.5389 8.256 28.5229 7.736 28.5069 7.176C28.5069 6.616 28.5069 6.008 28.5069 5.352V1.2H32.4669V18H28.7709L19.5789 5.616L20.8029 5.784C20.8829 6.552 20.9469 7.208 20.9949 7.752C21.0589 8.28 21.1069 8.752 21.1389 9.168C21.1869 9.584 21.2189 9.96 21.2349 10.296C21.2509 10.632 21.2589 10.968 21.2589 11.304C21.2749 11.624 21.2829 11.984 21.2829 12.384V18H17.3229Z" fill="#EAB308"/>
</svg>
